<svg xmlns="http://www.w3.org/2000/svg" viewBox="0 0 48 48" fill="none">
  <circle cx="24" cy="24" r="22" stroke="#c9a962" stroke-width="1.5"/>
  <path fill="#c9a962" d="M24 8l3.5 6.1h7l-5.7 4.1 2.2 6.8L24 21.8l-7 3.2 2.2-6.8-5.7-4.1h7L24 8z" opacity="0"/>
  <g fill="#c9a962">
    <path d="M24 10l2.2 3.8h4.4l-3.6 2.6 1.4 4.2L24 18.2l-4.4 2.4 1.4-4.2-3.6-2.6h4.4L24 10z" transform="rotate(0 24 24)"/>
    <path d="M24 10l2.2 3.8h4.4l-3.6 2.6 1.4 4.2L24 18.2l-4.4 2.4 1.4-4.2-3.6-2.6h4.4L24 10z" transform="rotate(60 24 24)"/>
    <path d="M24 10l2.2 3.8h4.4l-3.6 2.6 1.4 4.2L24 18.2l-4.4 2.4 1.4-4.2-3.6-2.6h4.4L24 10z" transform="rotate(120 24 24)"/>
    <path d="M24 10l2.2 3.8h4.4l-3.6 2.6 1.4 4.2L24 18.2l-4.4 2.4 1.4-4.2-3.6-2.6h4.4L24 10z" transform="rotate(180 24 24)"/>
    <path d="M24 10l2.2 3.8h4.4l-3.6 2.6 1.4 4.2L24 18.2l-4.4 2.4 1.4-4.2-3.6-2.6h4.4L24 10z" transform="rotate(240 24 24)"/>
    <path d="M24 10l2.2 3.8h4.4l-3.6 2.6 1.4 4.2L24 18.2l-4.4 2.4 1.4-4.2-3.6-2.6h4.4L24 10z" transform="rotate(300 24 24)"/>
  </g>
  <circle cx="24" cy="24" r="5" fill="#080808"/>
</svg>
